<?xml version="1.0" standalone="no"?>
<!DOCTYPE svg PUBLIC "-//W3C//DTD SVG 20010904//EN"
 "http://www.w3.org/TR/2001/REC-SVG-20010904/DTD/svg10.dtd">
<svg version="1.0" xmlns="http://www.w3.org/2000/svg"
 width="16.000000pt" height="16.000000pt" viewBox="0 0 16.000000 16.000000"
 preserveAspectRatio="xMidYMid meet">
<metadata>
Created by potrace 1.11, written by Peter Selinger 2001-2013
</metadata>
<g transform="translate(0.000000,16.000000) scale(0.004000,-0.004000)"
fill="#000000" stroke="none">
<path d="M8 3992 c-3 -8 -3 -1213 1 -2872 1 -619 5 -1119 8 -1112 2 6 9 12 14
12 6 0 7 -5 4 -10 -3 -5 -1 -10 4 -10 6 0 11 6 11 13 0 9 2 9 8 0 8 -12 77
-11 132 3 30 8 22 10 -55 14 l-90 5 -3 1330 c-2 1368 6 1981 27 1994 6 4 12
30 13 57 1 27 6 57 11 67 4 10 17 68 28 129 10 60 22 114 25 119 3 6 8 25 11
42 3 18 10 35 16 39 7 4 12 33 12 67 0 33 3 63 8 67 13 13 8 24 -16 33 -30 11
-166 22 -169 13z m19 -2374 c-2 -13 -4 -3 -4 22 0 25 2 35 4 23 2 -13 2 -33 0
-45z m0 -720 c-2 -13 -4 -3 -4 22 0 25 2 35 4 23 2 -13 2 -33 0 -45z"/>
<path d="M3929 3996 c-2 -2 -69 -6 -148 -10 -80 -3 -147 -8 -149 -11 -3 -3 67
-5 156 -5 l162 0 0 -1970 0 -1970 -137 -1 -138 -1 95 -14 c106 -15 220 -15
220 1 0 5 1 902 3 1992 2 1644 0 1984 -11 1988 -16 6 -47 7 -53 1z"/>
<path d="M3006 3945 c-8 -9 -18 -32 -22 -53 -3 -20 -12 -58 -19 -83 l-13 -47
56 -5 c32 -2 145 -2 252 1 l195 5 21 94 c11 51 18 96 15 98 -2 3 -109 5 -237
5 -196 0 -235 -2 -248 -15z"/>
<path d="M307 3743 c-2 -5 -1 -50 1 -101 l4 -92 19 24 c10 13 19 29 19 35 0
10 39 36 45 29 2 -2 5 -747 7 -1656 l3 -1652 55 -1 c52 -1 125 -16 88 -18 -9
-1 -23 -7 -30 -14 -7 -7 -22 -17 -33 -21 -19 -8 -19 -9 5 -18 23 -9 873 -4
955 5 17 2 37 5 45 6 13 1 13 3 1 10 -11 7 -6 12 20 19 l34 10 -30 3 c-111 9
363 17 1148 18 l917 1 1 528 c1 494 9 791 24 889 5 30 11 40 21 36 9 -3 14 2
15 13 0 18 1 18 8 0 6 -16 9 -17 16 -5 13 19 20 688 8 700 -6 6 -18 1 -31 -11
-12 -12 -22 -17 -22 -13 0 4 -7 0 -14 -10 -12 -16 -14 -15 -20 14 -3 17 -6
294 -6 615 l0 584 -1387 1 c-1205 1 -1907 9 -1723 18 44 2 50 5 30 11 -24 8
-23 8 8 9 19 1 31 5 27 11 -3 6 4 10 17 11 23 1 23 1 -2 9 -32 10 -238 12
-243 3z m3168 -388 l0 -230 -27 -30 c-103 -114 -92 -107 -139 -95 -77 21 -276
10 -494 -26 -110 -18 -168 -45 -195 -88 -24 -40 -25 -64 -4 -94 21 -30 34 -28
34 7 0 34 31 76 70 96 42 22 145 41 305 59 183 20 305 27 305 17 0 -7 -86 -88
-200 -188 -109 -96 -280 -214 -432 -299 l-87 -49 32 -27 c35 -30 33 -34 -10
-17 -16 6 -50 8 -81 4 -62 -8 -130 -54 -145 -100 -12 -36 5 -131 35 -188 l20
-40 -24 8 c-12 4 -48 10 -78 12 -46 4 -61 0 -90 -19 -19 -13 -44 -40 -55 -60
-18 -33 -18 -43 -8 -104 7 -38 10 -70 8 -73 -3 -2 -13 3 -23 12 -24 22 -86 47
-116 47 -13 0 -34 -8 -46 -18 -33 -27 -18 -47 121 -158 131 -105 185 -162 242
-256 79 -131 104 -299 72 -478 -9 -52 -18 -102 -18 -110 -2 -12 12 -14 78 -12
l80 4 -73 -74 -72 -73 -405 -3 c-223 -1 -405 1 -404 5 0 4 18 23 41 41 46 37
60 38 205 20 l96 -12 38 43 c21 23 43 58 49 77 18 55 6 80 -50 109 -71 36
-130 135 -130 219 0 42 -9 52 -51 60 -42 7 -234 -11 -261 -25 -26 -14 -38 -50
-49 -146 -5 -45 -23 -118 -39 -163 -17 -45 -30 -91 -30 -102 0 -26 27 -58 48
-58 20 0 52 -29 52 -47 0 -10 -51 -13 -274 -13 -151 0 -277 4 -280 8 -3 5 14
23 36 40 34 26 50 32 92 32 28 -1 62 -7 76 -15 14 -8 42 -14 62 -15 66 0 71
18 66 244 -4 175 -6 196 -26 229 -12 20 -30 83 -41 139 -11 57 -42 164 -70
239 -83 225 -98 364 -52 460 l19 39 -21 1 c-12 1 -31 2 -42 3 -11 1 -37 3 -58
4 l-39 2 30 29 c16 16 40 43 54 59 36 43 68 61 131 73 32 5 83 26 115 44 32
19 70 36 85 37 34 3 35 21 2 36 -38 18 -47 16 -129 -27 -41 -22 -100 -44 -132
-50 -53 -10 -64 -18 -138 -88 -45 -43 -87 -86 -94 -95 -7 -10 -20 -18 -28 -18
-13 0 -15 22 -13 137 1 125 0 138 -17 144 -29 11 5 11 44 0 18 -6 30 -6 28 -2
-8 12 41 34 59 27 9 -3 14 -2 10 4 -4 6 19 22 50 36 47 22 65 25 106 20 28 -4
49 -3 49 3 0 13 -75 41 -111 41 -34 0 -90 -25 -102 -46 -4 -8 -13 -14 -20 -14
-7 0 -6 4 3 10 9 6 10 10 3 10 -7 0 -16 -7 -21 -16 -13 -24 -85 -29 -136 -10
-40 15 -70 43 -128 115 -19 22 -24 61 -10 61 11 0 46 -39 61 -67 14 -28 93
-83 118 -83 10 1 29 7 43 15 29 17 26 18 -16 6 -23 -6 -31 -5 -31 4 0 7 8 10
20 7 20 -5 20 -5 1 14 -12 13 -22 16 -26 10 -4 -6 -8 -7 -8 -2 0 5 -7 3 -14
-4 -11 -9 -19 -9 -33 0 -16 9 -15 10 6 4 22 -6 23 -4 16 17 -8 28 -8 40 1 100
3 26 2 49 -3 52 -5 3 -7 -11 -5 -31 l5 -37 -23 20 -23 20 6 -20 c4 -11 2 -27
-3 -35 -5 -8 -10 -11 -10 -6 0 6 -6 2 -13 -8 -13 -17 -14 -18 -20 -2 -4 10 -3
15 3 11 6 -3 13 2 17 11 4 10 2 19 -5 22 -7 2 -10 8 -6 13 3 5 0 9 -5 9 -6 0
-11 7 -11 15 0 8 -7 15 -15 15 -8 0 -15 6 -15 14 0 8 -10 16 -22 18 -13 2 -27
13 -33 26 -6 14 -18 22 -33 22 -13 0 -21 4 -17 10 3 5 -9 13 -27 18 -29 7 -33
6 -37 -12 -4 -19 -5 -19 -12 4 -6 22 -7 20 -9 -15 -2 -35 -3 -37 -10 -15 -4
14 -8 199 -9 413 l-1 387 1483 -2 1482 -3 0 -230z m-2778 -641 c-3 -3 -12 -4
-19 -1 -8 3 -5 6 6 6 11 1 17 -2 13 -5z m96 -109 c-3 -9 -8 -14 -10 -11 -3 3
-2 9 2 15 9 16 15 13 8 -4z m77 -75 c0 -5 -5 -10 -11 -10 -5 0 -7 5 -4 10 3 6
8 10 11 10 2 0 4 -4 4 -10z m1930 -578 c54 -27 73 -32 135 -32 55 0 76 -4 86
-16 12 -15 8 -21 -27 -53 -41 -36 -41 -36 -36 -97 4 -65 -8 -104 -34 -104 -8
0 -39 23 -69 51 -50 47 -58 51 -115 56 -33 3 -63 10 -66 14 -3 5 13 28 36 52
47 52 50 74 13 88 -102 38 -243 -92 -243 -224 0 -86 43 -154 243 -384 69 -78
117 -157 117 -191 0 -10 -20 -38 -45 -62 -38 -37 -45 -41 -45 -23 0 66 -53
154 -199 328 -55 66 -115 149 -133 185 -30 59 -33 73 -33 155 0 108 17 146 94
218 70 65 101 78 187 75 57 -3 84 -10 134 -36z m585 -1072 c-10 -11 -21 -20
-25 -20 -4 0 -41 34 -83 75 -41 41 -79 75 -83 75 -4 0 -23 -14 -41 -32 l-33
-32 82 -83 83 -83 -23 -22 -22 -23 -101 101 -101 101 83 82 82 83 100 -101
c100 -99 101 -100 82 -121z m-336 -46 c12 -15 21 -33 21 -40 0 -8 10 -14 22
-14 36 0 68 -38 68 -83 0 -34 -8 -47 -62 -103 l-62 -65 -98 98 c-54 54 -98
100 -98 104 0 3 28 34 62 68 72 72 111 81 147 35z"/>
<path d="M2870 3293 c-116 -21 -313 -95 -411 -153 -60 -36 -149 -120 -149
-141 0 -16 81 21 131 61 29 23 93 61 143 85 86 42 290 107 377 121 43 7 53 24
15 24 -13 0 -36 2 -52 4 -16 2 -40 2 -54 -1z"/>
<path d="M1627 2908 c21 -50 24 -72 20 -118 -4 -34 0 -80 9 -120 8 -36 19
-154 24 -265 8 -195 20 -277 41 -291 20 -12 20 4 3 117 -12 80 -15 144 -10
215 3 61 1 114 -5 135 -6 19 -14 86 -18 149 -6 94 -12 124 -34 166 -40 78 -60
86 -30 12z"/>
<path d="M1480 2924 c1 -5 12 -29 26 -54 21 -37 24 -40 19 -16 -6 27 -46 90
-45 70z"/>
<path d="M595 2860 c-18 -8 -17 -9 8 -9 15 -1 27 4 27 9 0 12 -8 12 -35 0z"/>
<path d="M840 2796 c0 -9 5 -16 10 -16 6 0 10 4 10 9 0 6 -4 13 -10 16 -5 3
-10 -1 -10 -9z"/>
<path d="M2638 2686 c-62 -17 -126 -60 -134 -91 -4 -17 2 -38 20 -69 28 -48
56 -75 41 -40 -18 42 -17 75 1 95 33 37 96 62 169 69 l70 6 -45 22 c-52 25
-58 25 -122 8z"/>
<path d="M1010 2653 c-47 -2 -95 -5 -107 -8 -21 -5 -21 -7 -7 -24 15 -17 29
-18 160 -13 113 3 147 2 161 -9 14 -12 16 -12 12 1 -6 19 -87 61 -114 58 -11
-1 -58 -3 -105 -5z"/>
<path d="M951 2553 c-1 -18 13 -23 29 -11 12 8 12 9 -2 5 -9 -3 -19 -1 -22 6
-3 9 -5 9 -5 0z"/>
<path d="M2945 770 l-29 -30 23 -23 22 -22 25 29 c27 31 29 69 4 74 -9 1 -29
-11 -45 -28z"/>
<path d="M3026 691 c-29 -30 -29 -31 -11 -51 25 -27 40 -25 65 10 43 61 -2 95
-54 41z"/>
<path d="M2153 242 c-7 -4 -17 -28 -23 -52 -28 -111 -32 -132 -25 -138 9 -9
398 -15 453 -7 23 3 40 10 37 16 -4 5 -1 9 5 9 6 0 9 4 6 8 -5 8 16 114 28
143 6 13 -2 17 -40 23 -65 9 -426 7 -441 -2z"/>
<path d="M248 23 c7 -3 16 -2 19 1 4 3 -2 6 -13 5 -11 0 -14 -3 -6 -6z"/>
</g>
</svg>
